<?xml version="1.0" standalone="no"?>
<!DOCTYPE svg PUBLIC "-//W3C//DTD SVG 1.1//EN" "http://www.w3.org/Graphics/SVG/1.1/DTD/svg11.dtd">
<svg width="100%" height="100%" viewBox="0 0 534 534" version="1.1" xmlns="http://www.w3.org/2000/svg" xmlns:xlink="http://www.w3.org/1999/xlink" xml:space="preserve" style="fill-rule:evenodd;clip-rule:evenodd;stroke-linejoin:round;stroke-miterlimit:1.41421;">
    <g id="Layer 1" transform="matrix(3.42947,0,0,3.42947,47.1772,44.6717)">
        <path d="M79.66,19.472L79.735,19.473L79.809,19.475L79.884,19.479L79.958,19.483L80.032,19.488L80.105,19.494L80.179,19.501L80.252,19.509L80.325,19.518L80.398,19.528L80.471,19.538L80.543,19.55L80.616,19.562L80.687,19.576L80.759,19.59L80.83,19.605L80.901,19.621L80.972,19.638L81.042,19.655L81.112,19.674L81.182,19.693L81.252,19.713L81.321,19.734L81.389,19.756L81.458,19.779L81.526,19.802L81.593,19.826L81.66,19.851L81.727,19.877L81.793,19.904L81.859,19.931L81.925,19.959L81.99,19.988L82.054,20.018L82.118,20.048L82.182,20.08L82.246,20.112L82.308,20.144L82.371,20.178L82.433,20.212L82.494,20.247L82.555,20.282L82.615,20.318L82.675,20.355L82.735,20.393L82.794,20.431L82.852,20.47L82.91,20.51L82.967,20.55L83.024,20.591L83.081,20.633L83.136,20.675L83.192,20.718L83.247,20.761L83.301,20.806L83.354,20.85L83.407,20.896L83.46,20.942L83.512,20.989L83.563,21.036L83.614,21.084L83.664,21.132L83.714,21.181L83.763,21.231L83.812,21.281L83.859,21.332L83.907,21.384L83.953,21.435L83.999,21.488L84.045,21.541L84.09,21.595L84.134,21.649L84.177,21.704L84.22,21.759L84.263,21.815L84.304,21.871L84.345,21.928L84.386,21.985L84.425,22.043L84.464,22.102L84.502,22.161L84.54,22.22L84.577,22.28L84.613,22.341L84.649,22.402L84.683,22.463L84.718,22.525L84.751,22.587L84.784,22.65L84.816,22.713L84.847,22.777L84.877,22.841L84.907,22.906L84.936,22.971L84.964,23.036L84.991,23.102L85.018,23.168L85.044,23.235L85.069,23.302L85.093,23.37L85.117,23.438L85.139,23.506L85.161,23.575L85.182,23.644L85.202,23.713L85.222,23.783L85.24,23.853L85.258,23.923L85.275,23.994L85.29,24.065L85.305,24.136L85.32,24.208L85.333,24.28L85.345,24.352L85.357,24.425L85.368,24.497L85.377,24.57L85.386,24.643L85.394,24.716L85.401,24.79L85.407,24.864L85.412,24.938L85.417,25.012L85.42,25.086L85.422,25.16L85.424,25.235L85.424,25.3L85.424,35.744L79.349,35.744L79.349,25.546L48.338,25.546L48.338,35.744L42.263,35.744L42.263,25.3L42.264,25.235L42.265,25.16L42.267,25.086L42.271,25.012L42.275,24.938L42.28,24.864L42.286,24.79L42.293,24.716L42.301,24.643L42.31,24.57L42.32,24.497L42.33,24.424L42.342,24.352L42.354,24.28L42.368,24.208L42.382,24.136L42.397,24.065L42.413,23.994L42.43,23.923L42.447,23.853L42.466,23.783L42.485,23.713L42.505,23.644L42.526,23.575L42.548,23.506L42.571,23.438L42.594,23.37L42.618,23.302L42.643,23.235L42.669,23.168L42.696,23.102L42.723,23.036L42.751,22.971L42.78,22.905L42.81,22.841L42.84,22.777L42.872,22.713L42.904,22.65L42.936,22.587L42.97,22.524L43.004,22.463L43.039,22.401L43.074,22.34L43.11,22.28L43.147,22.22L43.185,22.16L43.223,22.101L43.262,22.043L43.302,21.985L43.342,21.928L43.383,21.871L43.425,21.814L43.467,21.759L43.51,21.703L43.554,21.649L43.598,21.594L43.643,21.541L43.688,21.488L43.734,21.435L43.781,21.383L43.828,21.332L43.876,21.281L43.924,21.231L43.974,21.181L44.023,21.132L44.074,21.083L44.124,21.036L44.176,20.988L44.228,20.942L44.28,20.896L44.333,20.85L44.387,20.805L44.441,20.761L44.496,20.718L44.551,20.675L44.607,20.632L44.664,20.591L44.72,20.55L44.778,20.51L44.836,20.47L44.894,20.431L44.953,20.393L45.013,20.355L45.073,20.318L45.133,20.282L45.194,20.246L45.255,20.212L45.317,20.177L45.38,20.144L45.442,20.111L45.506,20.08L45.57,20.048L45.634,20.018L45.698,19.988L45.763,19.959L45.829,19.931L45.895,19.904L45.961,19.877L46.028,19.851L46.095,19.826L46.162,19.802L46.231,19.779L46.299,19.756L46.368,19.734L46.437,19.713L46.506,19.693L46.576,19.674L46.646,19.655L46.716,19.638L46.787,19.621L46.858,19.605L46.929,19.59L47.001,19.576L47.073,19.562L47.145,19.55L47.217,19.538L47.29,19.528L47.363,19.518L47.436,19.509L47.509,19.501L47.583,19.494L47.657,19.488L47.731,19.483L47.805,19.479L47.879,19.475L47.953,19.473L48.028,19.472L48.093,19.471L79.595,19.471L79.66,19.472Z" style="fill:rgb(35,31,32);"/>
        <path d="M63.804,52.65L63.913,52.651L64.021,52.654L64.128,52.657L64.234,52.661L64.34,52.667L64.446,52.673L64.551,52.68L64.655,52.688L64.759,52.697L64.861,52.708L64.964,52.719L65.066,52.73L65.167,52.743L65.268,52.757L65.368,52.772L65.467,52.787L65.566,52.804L65.664,52.821L65.762,52.84L65.858,52.859L65.955,52.879L66.051,52.9L66.146,52.922L66.24,52.944L66.334,52.968L66.427,52.992L66.52,53.018L66.611,53.044L66.703,53.071L66.793,53.099L66.883,53.128L66.973,53.157L67.061,53.187L67.149,53.218L67.236,53.25L67.323,53.283L67.409,53.317L67.494,53.351L67.579,53.386L67.663,53.422L67.746,53.458L67.829,53.496L67.91,53.534L67.992,53.572L68.072,53.612L68.152,53.652L68.231,53.693L68.309,53.734L68.387,53.776L68.464,53.819L68.54,53.863L68.616,53.907L68.69,53.952L68.765,53.997L68.838,54.043L68.911,54.089L68.982,54.137L69.054,54.184L69.124,54.233L69.194,54.282L69.263,54.331L69.331,54.381L69.399,54.431L69.466,54.482L69.532,54.534L69.597,54.585L69.662,54.638L69.726,54.691L69.79,54.744L69.852,54.798L69.914,54.852L69.975,54.906L70.036,54.961L70.096,55.017L70.155,55.072L70.213,55.128L70.271,55.185L70.328,55.242L70.384,55.299L70.44,55.356L70.495,55.414L70.549,55.472L70.602,55.53L70.655,55.589L70.708,55.648L70.759,55.707L70.81,55.767L70.86,55.826L70.91,55.886L70.959,55.946L71.007,56.007L71.055,56.067L71.102,56.128L71.148,56.189L71.194,56.25L71.239,56.312L71.284,56.373L71.328,56.435L71.371,56.496L71.414,56.558L71.456,56.62L71.498,56.682L71.539,56.745L71.579,56.807L71.619,56.87L71.658,56.932L71.697,56.995L71.735,57.057L71.772,57.12L71.809,57.183L71.846,57.246L71.882,57.308L71.917,57.371L71.952,57.434L71.986,57.497L72.02,57.56L72.053,57.623L72.086,57.686L72.119,57.749L72.15,57.812L72.182,57.875L72.212,57.937L72.243,58L72.273,58.063L72.302,58.126L72.331,58.188L72.359,58.251L72.387,58.313L72.415,58.376L72.442,58.438L72.468,58.5L72.494,58.562L72.52,58.624L72.545,58.686L72.57,58.748L72.595,58.81L72.619,58.871L72.642,58.933L72.665,58.994L72.688,59.055L72.711,59.116L72.733,59.177L72.754,59.237L72.775,59.298L72.796,59.358L72.817,59.418L72.837,59.478L72.856,59.537L72.876,59.597L72.894,59.656L72.913,59.715L72.931,59.774L72.949,59.832L72.967,59.891L72.984,59.949L73.001,60.007L73.018,60.066L73.049,60.178L73.08,60.292L73.109,60.404L73.137,60.515L73.164,60.624L73.19,60.733L73.215,60.84L73.239,60.946L73.261,61.05L73.282,61.153L73.303,61.254L73.322,61.354L73.34,61.452L73.358,61.548L73.374,61.643L73.39,61.736L73.405,61.827L73.412,61.876L73.443,61.881L73.536,61.896L73.631,61.912L73.728,61.929L73.826,61.947L73.927,61.966L74.029,61.986L74.132,62.007L74.238,62.028L74.345,62.051L74.453,62.075L74.563,62.1L74.674,62.126L74.787,62.153L74.901,62.182L75.016,62.211L75.133,62.242L75.251,62.274L75.368,62.307L75.429,62.325L75.489,62.342L75.55,62.36L75.61,62.378L75.671,62.397L75.732,62.416L75.793,62.435L75.855,62.455L75.917,62.475L75.979,62.495L76.041,62.516L76.103,62.537L76.166,62.558L76.229,62.58L76.291,62.602L76.355,62.625L76.418,62.648L76.481,62.671L76.545,62.695L76.609,62.719L76.672,62.744L76.736,62.769L76.8,62.794L76.865,62.82L76.929,62.846L76.994,62.873L77.058,62.9L77.123,62.928L77.188,62.956L77.253,62.984L77.317,63.013L77.382,63.042L77.448,63.072L77.513,63.103L77.578,63.133L77.643,63.165L77.708,63.196L77.774,63.229L77.839,63.261L77.904,63.294L77.969,63.328L78.035,63.362L78.1,63.397L78.165,63.432L78.231,63.468L78.296,63.504L78.361,63.541L78.426,63.579L78.491,63.616L78.556,63.655L78.621,63.694L78.686,63.733L78.751,63.773L78.816,63.814L78.88,63.855L78.945,63.897L79.009,63.94L79.074,63.983L79.138,64.026L79.202,64.07L79.266,64.115L79.329,64.16L79.393,64.206L79.456,64.253L79.519,64.3L79.582,64.348L79.645,64.396L79.708,64.445L79.77,64.495L79.832,64.546L79.894,64.596L79.955,64.648L80.017,64.701L80.078,64.754L80.139,64.807L80.199,64.862L80.259,64.916L80.319,64.972L80.379,65.029L80.438,65.086L80.497,65.143L80.555,65.202L80.614,65.261L80.671,65.321L80.729,65.381L80.786,65.443L80.842,65.505L80.898,65.567L80.954,65.631L81.009,65.695L81.064,65.76L81.118,65.825L81.172,65.891L81.226,65.958L81.278,66.026L81.331,66.094L81.382,66.164L81.434,66.234L81.484,66.304L81.534,66.375L81.584,66.448L81.633,66.52L81.681,66.594L81.729,66.668L81.776,66.743L81.822,66.819L81.868,66.895L81.913,66.973L81.958,67.051L82.002,67.129L82.045,67.209L82.087,67.289L82.129,67.369L82.169,67.451L82.21,67.533L82.249,67.616L82.288,67.7L82.325,67.784L82.362,67.869L82.399,67.955L82.434,68.041L82.469,68.128L82.503,68.216L82.536,68.304L82.568,68.393L82.599,68.483L82.629,68.574L82.659,68.665L82.688,68.757L82.715,68.849L82.742,68.942L82.768,69.036L82.793,69.13L82.817,69.225L82.841,69.321L82.863,69.417L82.884,69.514L82.905,69.612L82.924,69.71L82.943,69.808L82.96,69.908L82.977,70.008L82.992,70.108L83.007,70.21L83.021,70.311L83.033,70.414L83.045,70.517L83.056,70.62L83.065,70.724L83.074,70.829L83.082,70.934L83.088,71.04L83.094,71.147L83.099,71.254L83.102,71.361L83.105,71.47L83.106,71.578L83.107,71.687L83.107,71.795L83.105,71.901L83.103,72.007L83.1,72.112L83.096,72.217L83.091,72.321L83.086,72.424L83.079,72.527L83.072,72.629L83.064,72.731L83.055,72.832L83.045,72.932L83.034,73.032L83.023,73.132L83.011,73.23L82.998,73.328L82.984,73.426L82.969,73.523L82.953,73.619L82.937,73.715L82.92,73.81L82.902,73.905L82.883,73.999L82.864,74.092L82.843,74.185L82.822,74.277L82.8,74.369L82.778,74.46L82.755,74.55L82.73,74.64L82.706,74.729L82.68,74.818L82.654,74.906L82.627,74.993L82.599,75.08L82.57,75.166L82.541,75.251L82.511,75.336L82.48,75.42L82.449,75.504L82.417,75.587L82.384,75.669L82.351,75.75L82.317,75.831L82.282,75.912L82.247,75.992L82.211,76.071L82.175,76.149L82.137,76.227L82.099,76.304L82.061,76.38L82.022,76.456L81.982,76.531L81.942,76.606L81.901,76.68L81.86,76.753L81.818,76.825L81.776,76.897L81.733,76.968L81.689,77.039L81.645,77.109L81.601,77.178L81.556,77.246L81.51,77.314L81.464,77.381L81.418,77.448L81.371,77.514L81.324,77.579L81.276,77.643L81.228,77.707L81.179,77.77L81.13,77.833L81.08,77.895L81.031,77.956L80.98,78.016L80.93,78.076L80.879,78.135L80.828,78.194L80.776,78.252L80.724,78.309L80.672,78.366L80.619,78.422L80.566,78.477L80.513,78.531L80.46,78.585L80.406,78.639L80.352,78.692L80.297,78.744L80.243,78.795L80.188,78.846L80.133,78.896L80.078,78.946L80.023,78.995L79.967,79.043L79.911,79.091L79.855,79.138L79.799,79.185L79.743,79.231L79.686,79.276L79.63,79.321L79.573,79.365L79.516,79.409L79.459,79.452L79.402,79.494L79.344,79.536L79.287,79.577L79.229,79.618L79.172,79.659L79.114,79.698L79.057,79.737L78.999,79.776L78.941,79.814L78.883,79.851L78.825,79.888L78.767,79.925L78.709,79.961L78.651,79.996L78.593,80.031L78.535,80.065L78.477,80.099L78.419,80.133L78.361,80.165L78.303,80.198L78.245,80.23L78.188,80.261L78.13,80.292L78.072,80.323L78.014,80.353L77.957,80.382L77.899,80.411L77.841,80.44L77.784,80.468L77.726,80.496L77.669,80.523L77.612,80.55L77.555,80.576L77.498,80.602L77.441,80.628L77.385,80.653L77.328,80.677L77.272,80.702L77.215,80.725L77.159,80.749L77.103,80.772L77.047,80.795L76.992,80.817L76.936,80.839L76.881,80.86L76.825,80.881L76.77,80.902L76.716,80.923L76.661,80.943L76.607,80.962L76.553,80.982L76.499,81L76.443,81.02L76.338,81.055L76.233,81.09L76.128,81.123L76.024,81.155L75.921,81.186L75.82,81.216L75.72,81.244L75.62,81.271L75.523,81.297L75.426,81.322L75.331,81.346L75.237,81.369L75.145,81.39L75.054,81.411L74.965,81.431L74.877,81.449L74.791,81.467L74.706,81.484L74.623,81.5L74.542,81.515L74.463,81.529L74.386,81.542L74.31,81.555L74.236,81.567L74.165,81.578L74.095,81.588L74.027,81.598L73.962,81.607L73.898,81.615L73.837,81.623L73.778,81.63L73.721,81.637L73.667,81.643L73.613,81.649L73.518,81.658L73.431,81.666L73.355,81.672L73.289,81.677L73.234,81.68L73.189,81.683L73.115,81.686L54.573,81.687L54.5,81.684L54.455,81.681L54.4,81.678L54.334,81.673L54.257,81.667L54.17,81.659L54.076,81.65L54.022,81.644L53.967,81.638L53.91,81.632L53.851,81.624L53.79,81.617L53.727,81.608L53.661,81.599L53.593,81.59L53.524,81.579L53.452,81.568L53.378,81.556L53.303,81.544L53.225,81.53L53.146,81.516L53.065,81.501L52.982,81.485L52.898,81.468L52.812,81.451L52.724,81.432L52.634,81.413L52.543,81.392L52.451,81.37L52.357,81.348L52.262,81.324L52.166,81.299L52.068,81.273L51.969,81.246L51.868,81.218L51.767,81.188L51.664,81.157L51.56,81.125L51.456,81.092L51.35,81.057L51.245,81.022L51.189,81.002L51.135,80.984L51.081,80.964L51.027,80.945L50.972,80.925L50.918,80.904L50.863,80.884L50.807,80.862L50.752,80.841L50.697,80.819L50.641,80.797L50.585,80.774L50.529,80.751L50.473,80.728L50.416,80.704L50.36,80.68L50.303,80.655L50.247,80.63L50.19,80.604L50.133,80.578L50.076,80.552L50.019,80.525L49.961,80.498L49.904,80.47L49.846,80.442L49.789,80.413L49.731,80.384L49.674,80.355L49.616,80.325L49.558,80.294L49.5,80.263L49.442,80.232L49.384,80.2L49.326,80.168L49.268,80.135L49.21,80.102L49.152,80.068L49.094,80.033L49.036,79.998L48.978,79.963L48.92,79.927L48.862,79.891L48.805,79.854L48.747,79.816L48.689,79.778L48.631,79.74L48.573,79.701L48.516,79.661L48.458,79.621L48.401,79.58L48.343,79.539L48.286,79.497L48.229,79.454L48.172,79.411L48.115,79.368L48.058,79.323L48.001,79.279L47.945,79.233L47.888,79.187L47.832,79.141L47.776,79.093L47.72,79.046L47.665,78.997L47.609,78.948L47.554,78.899L47.499,78.849L47.444,78.798L47.39,78.746L47.336,78.694L47.282,78.641L47.228,78.588L47.174,78.534L47.121,78.479L47.068,78.424L47.016,78.368L46.963,78.311L46.911,78.254L46.86,78.196L46.808,78.138L46.757,78.078L46.707,78.019L46.657,77.958L46.607,77.897L46.557,77.835L46.508,77.773L46.46,77.709L46.411,77.646L46.364,77.581L46.316,77.516L46.269,77.45L46.223,77.383L46.177,77.316L46.131,77.248L46.086,77.18L46.042,77.111L45.998,77.041L45.954,76.97L45.911,76.899L45.869,76.827L45.827,76.755L45.786,76.682L45.745,76.608L45.705,76.533L45.665,76.458L45.626,76.382L45.588,76.306L45.55,76.229L45.513,76.151L45.476,76.073L45.44,75.994L45.405,75.914L45.37,75.833L45.336,75.752L45.303,75.671L45.27,75.588L45.238,75.506L45.207,75.422L45.176,75.338L45.146,75.253L45.117,75.168L45.088,75.081L45.061,74.995L45.033,74.907L45.007,74.82L44.981,74.731L44.957,74.642L44.932,74.552L44.909,74.462L44.887,74.371L44.865,74.279L44.844,74.187L44.823,74.094L44.804,74.001L44.785,73.907L44.767,73.812L44.75,73.717L44.734,73.621L44.718,73.524L44.703,73.427L44.689,73.33L44.676,73.232L44.664,73.133L44.653,73.034L44.642,72.934L44.632,72.833L44.623,72.732L44.615,72.63L44.608,72.528L44.601,72.425L44.596,72.322L44.591,72.218L44.587,72.113L44.584,72.008L44.582,71.902L44.58,71.796L44.58,71.688L44.581,71.58L44.582,71.472L44.584,71.365L44.588,71.258L44.592,71.152L44.597,71.046L44.604,70.941L44.611,70.837L44.619,70.733L44.628,70.63L44.638,70.527L44.649,70.425L44.661,70.323L44.674,70.222L44.688,70.122L44.702,70.022L44.718,69.922L44.734,69.824L44.752,69.726L44.77,69.628L44.789,69.531L44.809,69.435L44.83,69.339L44.852,69.244L44.874,69.15L44.898,69.056L44.922,68.963L44.947,68.87L44.973,68.778L45,68.687L45.028,68.596L45.056,68.506L45.086,68.417L45.116,68.328L45.147,68.24L45.179,68.152L45.211,68.065L45.244,67.979L45.278,67.894L45.313,67.809L45.349,67.725L45.385,67.641L45.422,67.558L45.459,67.476L45.498,67.395L45.537,67.314L45.577,67.233L45.617,67.154L45.658,67.075L45.7,66.997L45.742,66.92L45.785,66.843L45.829,66.767L45.873,66.691L45.918,66.617L45.964,66.543L46.01,66.469L46.056,66.397L46.104,66.325L46.151,66.254L46.2,66.183L46.248,66.113L46.298,66.044L46.348,65.976L46.398,65.908L46.449,65.841L46.5,65.775L46.552,65.709L46.604,65.644L46.657,65.58L46.71,65.516L46.763,65.453L46.817,65.391L46.871,65.329L46.926,65.268L46.981,65.208L47.036,65.149L47.092,65.09L47.148,65.031L47.205,64.974L47.261,64.917L47.318,64.861L47.376,64.805L47.433,64.75L47.491,64.696L47.55,64.642L47.608,64.589L47.667,64.537L47.726,64.485L47.785,64.434L47.845,64.384L47.904,64.334L47.964,64.285L48.024,64.236L48.084,64.188L48.145,64.14L48.206,64.094L48.266,64.047L48.327,64.002L48.388,63.957L48.449,63.912L48.511,63.868L48.572,63.825L48.634,63.782L48.696,63.74L48.757,63.698L48.819,63.657L48.881,63.617L48.943,63.577L49.005,63.537L49.067,63.499L49.13,63.46L49.192,63.422L49.254,63.385L49.317,63.348L49.379,63.312L49.441,63.276L49.504,63.241L49.566,63.206L49.628,63.172L49.691,63.138L49.753,63.105L49.815,63.072L49.877,63.04L49.94,63.008L50.002,62.976L50.064,62.945L50.126,62.915L50.188,62.885L50.25,62.855L50.312,62.826L50.373,62.797L50.435,62.769L50.497,62.741L50.558,62.714L50.619,62.687L50.681,62.661L50.742,62.634L50.803,62.609L50.863,62.583L50.924,62.559L50.985,62.534L51.045,62.51L51.105,62.486L51.165,62.463L51.225,62.44L51.285,62.418L51.344,62.395L51.403,62.374L51.462,62.352L51.521,62.331L51.58,62.311L51.638,62.29L51.696,62.27L51.754,62.251L51.814,62.231L51.927,62.194L52.041,62.158L52.153,62.123L52.265,62.089L52.375,62.057L52.484,62.026L52.592,61.996L52.699,61.968L52.804,61.94L52.908,61.914L53.01,61.889L53.111,61.865L53.21,61.842L53.308,61.82L53.404,61.799L53.498,61.778L53.591,61.759L53.682,61.741L53.771,61.724L53.809,61.717L53.811,61.707L53.827,61.619L53.843,61.529L53.861,61.438L53.879,61.345L53.899,61.25L53.92,61.154L53.941,61.056L53.964,60.957L53.987,60.856L54.012,60.753L54.038,60.649L54.065,60.544L54.093,60.438L54.123,60.33L54.153,60.221L54.185,60.111L54.218,60L54.252,59.89L54.271,59.832L54.289,59.775L54.307,59.718L54.326,59.661L54.345,59.603L54.365,59.546L54.385,59.488L54.405,59.43L54.425,59.371L54.446,59.313L54.468,59.254L54.489,59.195L54.512,59.136L54.534,59.077L54.557,59.018L54.58,58.958L54.604,58.898L54.628,58.838L54.653,58.778L54.678,58.718L54.703,58.658L54.729,58.598L54.755,58.537L54.782,58.476L54.809,58.416L54.836,58.355L54.864,58.294L54.893,58.233L54.921,58.171L54.951,58.11L54.981,58.049L55.011,57.988L55.042,57.926L55.073,57.865L55.104,57.803L55.137,57.742L55.169,57.68L55.202,57.619L55.236,57.557L55.27,57.496L55.305,57.434L55.34,57.372L55.376,57.311L55.412,57.249L55.449,57.188L55.486,57.126L55.524,57.065L55.562,57.003L55.601,56.942L55.64,56.881L55.68,56.819L55.721,56.758L55.762,56.697L55.804,56.636L55.846,56.575L55.889,56.515L55.932,56.454L55.976,56.394L56.021,56.333L56.066,56.273L56.112,56.213L56.158,56.153L56.205,56.094L56.253,56.034L56.301,55.975L56.35,55.916L56.4,55.857L56.45,55.798L56.5,55.74L56.552,55.681L56.604,55.623L56.657,55.566L56.71,55.508L56.764,55.451L56.819,55.394L56.874,55.338L56.93,55.281L56.986,55.225L57.044,55.17L57.102,55.114L57.16,55.059L57.22,55.005L57.28,54.95L57.34,54.897L57.402,54.843L57.464,54.79L57.527,54.737L57.59,54.685L57.654,54.633L57.719,54.582L57.784,54.531L57.851,54.48L57.918,54.43L57.985,54.381L58.054,54.332L58.122,54.283L58.192,54.235L58.263,54.188L58.334,54.141L58.405,54.095L58.478,54.049L58.551,54.004L58.625,53.959L58.7,53.915L58.775,53.871L58.851,53.828L58.927,53.786L59.005,53.745L59.083,53.704L59.162,53.663L59.241,53.624L59.321,53.585L59.402,53.546L59.483,53.509L59.565,53.472L59.648,53.436L59.731,53.4L59.816,53.365L59.9,53.331L59.986,53.298L60.072,53.266L60.159,53.234L60.246,53.203L60.334,53.173L60.423,53.143L60.512,53.114L60.602,53.087L60.693,53.059L60.784,53.033L60.876,53.008L60.968,52.983L61.062,52.959L61.155,52.936L61.25,52.914L61.345,52.893L61.44,52.873L61.537,52.853L61.633,52.834L61.731,52.817L61.829,52.8L61.928,52.784L62.027,52.768L62.127,52.754L62.227,52.741L62.328,52.728L62.43,52.717L62.532,52.706L62.635,52.696L62.738,52.687L62.842,52.679L62.947,52.672L63.052,52.666L63.158,52.661L63.264,52.657L63.371,52.654L63.479,52.651L63.587,52.65L63.696,52.649L63.804,52.65ZM63.619,56.295L63.543,56.296L63.467,56.297L63.393,56.3L63.319,56.302L63.247,56.306L63.175,56.31L63.103,56.315L63.033,56.32L62.963,56.326L62.894,56.333L62.826,56.34L62.758,56.348L62.692,56.356L62.626,56.365L62.56,56.374L62.496,56.384L62.432,56.394L62.369,56.405L62.306,56.417L62.244,56.429L62.183,56.441L62.123,56.454L62.063,56.467L62.004,56.481L61.946,56.495L61.888,56.51L61.831,56.525L61.774,56.541L61.718,56.557L61.663,56.574L61.608,56.591L61.554,56.608L61.5,56.626L61.447,56.644L61.395,56.663L61.343,56.682L61.292,56.701L61.241,56.721L61.19,56.741L61.141,56.762L61.092,56.783L61.043,56.804L60.995,56.825L60.947,56.848L60.9,56.87L60.853,56.893L60.807,56.916L60.761,56.939L60.716,56.963L60.671,56.987L60.626,57.012L60.582,57.037L60.538,57.062L60.495,57.087L60.453,57.113L60.41,57.139L60.368,57.166L60.327,57.193L60.286,57.22L60.245,57.247L60.204,57.275L60.164,57.303L60.125,57.332L60.086,57.36L60.047,57.39L60.008,57.419L59.97,57.449L59.932,57.479L59.894,57.509L59.857,57.54L59.82,57.571L59.784,57.602L59.748,57.633L59.712,57.665L59.676,57.697L59.641,57.73L59.606,57.762L59.572,57.795L59.537,57.829L59.504,57.862L59.47,57.896L59.437,57.93L59.404,57.965L59.371,57.999L59.338,58.034L59.306,58.069L59.274,58.105L59.243,58.141L59.212,58.177L59.181,58.213L59.15,58.249L59.12,58.286L59.09,58.323L59.06,58.36L59.03,58.398L59.001,58.435L58.972,58.473L58.944,58.511L58.915,58.55L58.887,58.588L58.859,58.627L58.832,58.666L58.805,58.705L58.778,58.745L58.751,58.784L58.725,58.824L58.698,58.864L58.673,58.904L58.647,58.945L58.622,58.985L58.597,59.026L58.572,59.067L58.547,59.107L58.523,59.149L58.499,59.19L58.476,59.231L58.452,59.273L58.429,59.314L58.406,59.356L58.384,59.398L58.362,59.44L58.34,59.482L58.318,59.525L58.296,59.567L58.275,59.609L58.254,59.652L58.233,59.694L58.213,59.737L58.193,59.78L58.173,59.822L58.153,59.865L58.134,59.908L58.115,59.951L58.096,59.994L58.077,60.037L58.059,60.08L58.041,60.123L58.023,60.166L58.006,60.209L57.988,60.252L57.971,60.295L57.955,60.337L57.938,60.38L57.922,60.423L57.906,60.466L57.89,60.509L57.874,60.552L57.859,60.594L57.844,60.637L57.829,60.679L57.815,60.722L57.8,60.764L57.786,60.807L57.772,60.849L57.759,60.891L57.745,60.933L57.733,60.973L57.706,61.058L57.682,61.141L57.658,61.223L57.635,61.304L57.613,61.385L57.592,61.465L57.571,61.544L57.552,61.622L57.533,61.7L57.515,61.776L57.498,61.851L57.482,61.925L57.466,61.998L57.452,62.07L57.437,62.141L57.424,62.21L57.411,62.278L57.399,62.344L57.388,62.409L57.377,62.472L57.367,62.534L57.358,62.594L57.349,62.652L57.341,62.709L57.333,62.764L57.326,62.817L57.319,62.868L57.313,62.917L57.308,62.964L57.303,63.009L57.298,63.051L57.294,63.092L57.29,63.128L57.283,63.2L57.278,63.26L57.274,63.311L57.272,63.35L57.27,63.379L57.269,63.395L57.197,65.052L55.54,65.153L55.523,65.154L55.493,65.156L55.452,65.16L55.4,65.165L55.338,65.171L55.263,65.179L55.226,65.184L55.184,65.189L55.14,65.194L55.093,65.2L55.045,65.207L54.994,65.214L54.942,65.221L54.887,65.23L54.831,65.238L54.773,65.248L54.712,65.258L54.651,65.268L54.587,65.279L54.522,65.291L54.455,65.304L54.387,65.317L54.317,65.331L54.246,65.346L54.173,65.361L54.099,65.378L54.024,65.394L53.948,65.412L53.87,65.431L53.792,65.45L53.712,65.47L53.631,65.491L53.55,65.513L53.468,65.536L53.384,65.56L53.3,65.584L53.216,65.61L53.131,65.636L53.045,65.663L52.957,65.692L52.915,65.706L52.872,65.721L52.828,65.736L52.784,65.751L52.74,65.766L52.697,65.782L52.653,65.798L52.609,65.814L52.565,65.83L52.52,65.847L52.476,65.864L52.432,65.881L52.388,65.898L52.343,65.916L52.299,65.934L52.255,65.952L52.21,65.971L52.166,65.989L52.122,66.008L52.077,66.028L52.033,66.047L51.989,66.067L51.945,66.087L51.9,66.107L51.856,66.128L51.812,66.148L51.768,66.169L51.724,66.191L51.68,66.212L51.636,66.234L51.592,66.256L51.549,66.279L51.505,66.301L51.462,66.324L51.418,66.348L51.375,66.371L51.332,66.395L51.289,66.419L51.246,66.443L51.203,66.468L51.16,66.492L51.118,66.517L51.075,66.543L51.033,66.569L50.991,66.594L50.949,66.621L50.908,66.647L50.866,66.674L50.825,66.701L50.784,66.728L50.743,66.756L50.702,66.784L50.661,66.812L50.621,66.84L50.581,66.869L50.541,66.898L50.502,66.927L50.462,66.957L50.423,66.987L50.384,67.017L50.345,67.047L50.307,67.078L50.268,67.109L50.23,67.14L50.193,67.171L50.155,67.203L50.118,67.235L50.081,67.268L50.045,67.3L50.008,67.333L49.972,67.366L49.936,67.4L49.901,67.434L49.866,67.468L49.831,67.502L49.796,67.537L49.762,67.572L49.728,67.607L49.694,67.643L49.661,67.679L49.627,67.715L49.595,67.752L49.562,67.789L49.53,67.826L49.498,67.863L49.466,67.901L49.435,67.939L49.404,67.978L49.374,68.017L49.344,68.056L49.314,68.095L49.284,68.135L49.255,68.175L49.226,68.216L49.197,68.257L49.169,68.298L49.141,68.34L49.114,68.382L49.086,68.424L49.059,68.467L49.033,68.51L49.007,68.553L48.981,68.597L48.956,68.642L48.93,68.686L48.906,68.731L48.881,68.777L48.857,68.823L48.834,68.87L48.81,68.916L48.788,68.964L48.765,69.012L48.743,69.06L48.721,69.109L48.7,69.158L48.679,69.208L48.658,69.258L48.638,69.309L48.618,69.36L48.599,69.412L48.58,69.464L48.562,69.517L48.543,69.57L48.526,69.624L48.509,69.678L48.492,69.733L48.475,69.789L48.459,69.845L48.444,69.902L48.429,69.959L48.415,70.017L48.4,70.076L48.387,70.135L48.374,70.195L48.361,70.256L48.349,70.317L48.338,70.379L48.326,70.441L48.316,70.505L48.306,70.568L48.296,70.633L48.288,70.698L48.279,70.764L48.271,70.831L48.264,70.898L48.257,70.966L48.251,71.035L48.246,71.105L48.241,71.175L48.237,71.246L48.233,71.318L48.23,71.391L48.228,71.464L48.226,71.538L48.225,71.613L48.225,71.689L48.225,71.766L48.226,71.842L48.228,71.918L48.23,71.993L48.233,72.067L48.236,72.14L48.24,72.213L48.244,72.284L48.249,72.355L48.255,72.426L48.261,72.495L48.268,72.564L48.275,72.632L48.283,72.699L48.291,72.765L48.3,72.831L48.309,72.896L48.319,72.961L48.329,73.024L48.34,73.087L48.351,73.149L48.363,73.211L48.375,73.272L48.388,73.332L48.401,73.391L48.414,73.45L48.428,73.509L48.442,73.566L48.457,73.623L48.472,73.679L48.488,73.735L48.504,73.79L48.52,73.845L48.537,73.899L48.554,73.952L48.571,74.004L48.589,74.057L48.607,74.108L48.626,74.159L48.645,74.21L48.664,74.259L48.684,74.309L48.703,74.358L48.724,74.406L48.744,74.454L48.765,74.501L48.787,74.548L48.808,74.594L48.83,74.64L48.852,74.685L48.875,74.73L48.898,74.774L48.921,74.818L48.944,74.861L48.968,74.904L48.992,74.947L49.016,74.989L49.041,75.031L49.066,75.072L49.091,75.113L49.116,75.153L49.142,75.193L49.168,75.233L49.194,75.272L49.221,75.311L49.248,75.349L49.275,75.387L49.302,75.425L49.33,75.462L49.358,75.499L49.386,75.536L49.414,75.572L49.443,75.608L49.472,75.643L49.501,75.679L49.531,75.713L49.56,75.748L49.59,75.782L49.621,75.816L49.651,75.849L49.682,75.883L49.713,75.916L49.744,75.948L49.775,75.98L49.807,76.012L49.839,76.044L49.871,76.075L49.903,76.106L49.936,76.137L49.968,76.167L50.001,76.197L50.034,76.227L50.068,76.257L50.102,76.286L50.135,76.315L50.169,76.344L50.204,76.372L50.238,76.4L50.273,76.428L50.307,76.455L50.342,76.483L50.378,76.51L50.413,76.536L50.448,76.563L50.484,76.589L50.52,76.615L50.556,76.64L50.592,76.665L50.629,76.69L50.665,76.715L50.702,76.74L50.739,76.764L50.776,76.788L50.813,76.811L50.85,76.835L50.887,76.858L50.925,76.881L50.962,76.903L51,76.926L51.038,76.948L51.076,76.97L51.114,76.991L51.152,77.012L51.19,77.033L51.228,77.054L51.266,77.075L51.305,77.095L51.343,77.115L51.382,77.135L51.42,77.154L51.459,77.173L51.498,77.192L51.537,77.211L51.575,77.229L51.614,77.248L51.653,77.265L51.692,77.283L51.731,77.301L51.77,77.318L51.808,77.335L51.847,77.351L51.886,77.368L51.925,77.384L51.964,77.4L52.003,77.416L52.041,77.431L52.08,77.447L52.119,77.462L52.157,77.476L52.196,77.491L52.234,77.505L52.273,77.519L52.311,77.533L52.349,77.547L52.387,77.56L52.424,77.573L52.501,77.599L52.577,77.624L52.652,77.647L52.726,77.67L52.8,77.693L52.873,77.714L52.945,77.734L53.017,77.754L53.088,77.773L53.158,77.791L53.227,77.808L53.295,77.824L53.362,77.84L53.428,77.855L53.493,77.869L53.557,77.883L53.619,77.896L53.681,77.908L53.741,77.919L53.799,77.93L53.856,77.94L53.912,77.95L53.967,77.959L54.019,77.968L54.07,77.976L54.12,77.983L54.168,77.99L54.214,77.996L54.258,78.002L54.3,78.007L54.34,78.012L54.379,78.017L54.415,78.021L54.448,78.024L54.512,78.03L54.566,78.035L54.61,78.039L54.645,78.041L54.661,78.042L73.026,78.041L73.043,78.04L73.077,78.038L73.122,78.034L73.175,78.029L73.24,78.023L73.272,78.02L73.308,78.016L73.347,78.011L73.387,78.006L73.43,78.001L73.474,77.995L73.52,77.989L73.568,77.982L73.617,77.974L73.668,77.966L73.721,77.958L73.775,77.949L73.831,77.939L73.888,77.929L73.947,77.918L74.007,77.907L74.068,77.894L74.131,77.881L74.194,77.868L74.259,77.854L74.325,77.839L74.392,77.823L74.461,77.806L74.53,77.789L74.6,77.771L74.67,77.752L74.742,77.733L74.814,77.712L74.888,77.691L74.961,77.669L75.036,77.646L75.11,77.622L75.186,77.597L75.264,77.571L75.3,77.558L75.338,77.545L75.376,77.531L75.415,77.518L75.453,77.503L75.491,77.489L75.53,77.475L75.569,77.46L75.607,77.445L75.646,77.43L75.685,77.414L75.724,77.398L75.762,77.382L75.801,77.366L75.84,77.35L75.879,77.333L75.918,77.316L75.957,77.299L75.995,77.281L76.034,77.264L76.073,77.246L76.112,77.227L76.151,77.209L76.189,77.19L76.228,77.171L76.267,77.152L76.305,77.133L76.344,77.113L76.382,77.093L76.421,77.073L76.459,77.052L76.497,77.031L76.536,77.01L76.574,76.989L76.612,76.968L76.649,76.946L76.687,76.924L76.725,76.901L76.763,76.879L76.8,76.856L76.837,76.833L76.875,76.809L76.912,76.786L76.949,76.762L76.985,76.738L77.022,76.713L77.059,76.688L77.095,76.663L77.131,76.638L77.167,76.612L77.203,76.587L77.239,76.56L77.274,76.534L77.31,76.507L77.345,76.48L77.38,76.453L77.415,76.426L77.449,76.398L77.484,76.37L77.518,76.341L77.552,76.313L77.586,76.284L77.619,76.255L77.653,76.225L77.686,76.195L77.719,76.165L77.752,76.135L77.784,76.104L77.816,76.073L77.849,76.042L77.88,76.01L77.912,75.978L77.943,75.946L77.975,75.913L78.005,75.88L78.036,75.847L78.067,75.814L78.097,75.78L78.127,75.745L78.156,75.711L78.186,75.676L78.215,75.641L78.244,75.605L78.273,75.57L78.301,75.533L78.329,75.497L78.357,75.46L78.385,75.423L78.412,75.385L78.439,75.347L78.466,75.308L78.493,75.27L78.519,75.23L78.545,75.191L78.571,75.151L78.596,75.11L78.621,75.07L78.646,75.028L78.671,74.987L78.695,74.944L78.719,74.902L78.743,74.859L78.766,74.816L78.79,74.772L78.812,74.727L78.835,74.683L78.857,74.637L78.879,74.592L78.901,74.545L78.922,74.499L78.943,74.451L78.963,74.404L78.984,74.355L79.004,74.307L79.023,74.257L79.042,74.207L79.061,74.157L79.08,74.106L79.098,74.055L79.116,74.002L79.133,73.95L79.15,73.897L79.167,73.843L79.183,73.788L79.199,73.733L79.215,73.678L79.23,73.621L79.245,73.564L79.259,73.507L79.273,73.449L79.286,73.39L79.299,73.33L79.312,73.27L79.324,73.209L79.336,73.148L79.347,73.085L79.358,73.023L79.368,72.959L79.378,72.895L79.387,72.83L79.396,72.764L79.404,72.697L79.412,72.63L79.419,72.562L79.426,72.494L79.432,72.424L79.438,72.354L79.443,72.283L79.447,72.211L79.451,72.139L79.454,72.066L79.457,71.992L79.459,71.917L79.461,71.841L79.462,71.765L79.462,71.688L79.462,71.613L79.461,71.539L79.459,71.466L79.456,71.394L79.453,71.322L79.45,71.251L79.445,71.181L79.44,71.112L79.435,71.044L79.428,70.976L79.421,70.909L79.414,70.843L79.406,70.778L79.397,70.713L79.388,70.649L79.378,70.586L79.368,70.523L79.357,70.461L79.345,70.4L79.333,70.34L79.321,70.28L79.308,70.221L79.294,70.162L79.28,70.104L79.266,70.047L79.25,69.99L79.235,69.934L79.219,69.879L79.202,69.824L79.186,69.77L79.168,69.716L79.15,69.663L79.132,69.611L79.113,69.559L79.094,69.508L79.075,69.457L79.055,69.406L79.034,69.356L79.013,69.307L78.992,69.258L78.97,69.21L78.948,69.162L78.926,69.115L78.903,69.068L78.879,69.021L78.856,68.975L78.832,68.93L78.807,68.884L78.782,68.84L78.757,68.795L78.731,68.751L78.705,68.708L78.679,68.665L78.652,68.622L78.625,68.58L78.597,68.537L78.569,68.496L78.541,68.455L78.512,68.414L78.483,68.373L78.453,68.333L78.424,68.293L78.393,68.254L78.363,68.214L78.332,68.176L78.301,68.137L78.269,68.099L78.237,68.061L78.205,68.023L78.172,67.986L78.139,67.949L78.105,67.913L78.072,67.876L78.037,67.84L78.003,67.804L77.968,67.769L77.933,67.734L77.897,67.699L77.862,67.665L77.825,67.63L77.789,67.596L77.752,67.563L77.715,67.529L77.677,67.496L77.64,67.463L77.602,67.431L77.563,67.399L77.524,67.367L77.485,67.335L77.446,67.304L77.406,67.273L77.366,67.242L77.326,67.211L77.286,67.181L77.245,67.151L77.204,67.121L77.163,67.092L77.121,67.063L77.079,67.034L77.037,67.005L76.995,66.977L76.952,66.949L76.909,66.921L76.866,66.894L76.823,66.867L76.78,66.84L76.736,66.813L76.692,66.787L76.648,66.761L76.603,66.735L76.559,66.709L76.514,66.684L76.469,66.659L76.424,66.635L76.379,66.61L76.334,66.586L76.288,66.562L76.242,66.539L76.197,66.515L76.15,66.492L76.104,66.469L76.058,66.447L76.012,66.425L75.965,66.403L75.919,66.381L75.872,66.36L75.825,66.339L75.778,66.318L75.732,66.297L75.685,66.277L75.637,66.257L75.59,66.237L75.543,66.217L75.496,66.198L75.449,66.179L75.402,66.16L75.354,66.142L75.307,66.124L75.26,66.106L75.212,66.088L75.165,66.071L75.118,66.053L75.071,66.037L75.023,66.02L74.976,66.003L74.929,65.987L74.882,65.971L74.835,65.956L74.788,65.94L74.741,65.925L74.694,65.91L74.648,65.896L74.601,65.881L74.555,65.867L74.508,65.853L74.462,65.839L74.416,65.826L74.371,65.813L74.278,65.787L74.187,65.762L74.097,65.738L74.007,65.715L73.918,65.693L73.831,65.672L73.744,65.652L73.658,65.632L73.573,65.613L73.489,65.595L73.406,65.578L73.325,65.562L73.244,65.546L73.165,65.532L73.088,65.518L73.012,65.504L72.937,65.492L72.864,65.48L72.793,65.468L72.723,65.458L72.655,65.448L72.589,65.438L72.525,65.43L72.462,65.421L72.402,65.414L72.344,65.407L72.287,65.4L72.233,65.394L72.181,65.388L72.132,65.383L72.084,65.379L72.039,65.374L71.999,65.371L71.919,65.364L71.852,65.359L71.796,65.355L71.751,65.352L71.717,65.351L71.698,65.35L69.962,65.284L69.924,63.55L69.924,63.532L69.922,63.502L69.921,63.461L69.918,63.409L69.914,63.347L69.909,63.273L69.906,63.236L69.902,63.194L69.899,63.15L69.894,63.104L69.89,63.055L69.885,63.005L69.879,62.952L69.873,62.898L69.866,62.842L69.859,62.783L69.852,62.723L69.844,62.662L69.835,62.598L69.825,62.533L69.815,62.466L69.805,62.398L69.794,62.329L69.782,62.258L69.769,62.185L69.756,62.112L69.742,62.037L69.727,61.96L69.711,61.883L69.695,61.805L69.678,61.726L69.66,61.645L69.641,61.564L69.622,61.482L69.602,61.399L69.58,61.316L69.558,61.231L69.535,61.146L69.511,61.059L69.499,61.018L69.486,60.975L69.474,60.932L69.461,60.888L69.447,60.845L69.434,60.802L69.42,60.758L69.406,60.715L69.392,60.671L69.378,60.627L69.363,60.583L69.348,60.539L69.333,60.496L69.318,60.452L69.302,60.408L69.286,60.364L69.27,60.32L69.253,60.276L69.237,60.232L69.22,60.187L69.203,60.143L69.185,60.099L69.167,60.055L69.15,60.011L69.131,59.968L69.113,59.924L69.094,59.88L69.075,59.836L69.056,59.792L69.036,59.749L69.016,59.705L68.996,59.662L68.976,59.618L68.956,59.575L68.935,59.532L68.914,59.489L68.892,59.446L68.871,59.403L68.849,59.36L68.826,59.318L68.804,59.275L68.781,59.233L68.758,59.19L68.735,59.148L68.711,59.107L68.687,59.065L68.663,59.023L68.639,58.982L68.614,58.941L68.589,58.9L68.564,58.859L68.539,58.818L68.513,58.778L68.487,58.738L68.46,58.698L68.434,58.658L68.407,58.618L68.38,58.579L68.352,58.54L68.325,58.501L68.297,58.462L68.268,58.424L68.24,58.386L68.211,58.348L68.182,58.31L68.152,58.273L68.123,58.236L68.093,58.199L68.062,58.162L68.032,58.126L68.001,58.09L67.97,58.054L67.938,58.019L67.907,57.984L67.874,57.949L67.842,57.914L67.809,57.88L67.776,57.846L67.743,57.812L67.71,57.778L67.676,57.745L67.642,57.712L67.607,57.68L67.572,57.648L67.537,57.616L67.502,57.584L67.466,57.553L67.43,57.522L67.393,57.491L67.356,57.461L67.319,57.431L67.282,57.401L67.244,57.371L67.206,57.342L67.167,57.314L67.128,57.285L67.089,57.257L67.049,57.229L67.009,57.202L66.969,57.175L66.928,57.148L66.887,57.122L66.845,57.095L66.803,57.07L66.76,57.044L66.718,57.019L66.674,56.994L66.63,56.97L66.586,56.946L66.541,56.922L66.496,56.899L66.451,56.876L66.405,56.854L66.358,56.831L66.311,56.809L66.263,56.788L66.215,56.767L66.167,56.746L66.117,56.726L66.068,56.706L66.017,56.686L65.967,56.667L65.915,56.648L65.863,56.63L65.811,56.612L65.758,56.594L65.704,56.577L65.65,56.561L65.595,56.544L65.539,56.528L65.483,56.513L65.426,56.498L65.369,56.484L65.311,56.47L65.252,56.456L65.192,56.443L65.132,56.431L65.071,56.418L65.01,56.407L64.947,56.396L64.884,56.385L64.82,56.375L64.756,56.366L64.691,56.357L64.625,56.349L64.558,56.341L64.491,56.334L64.422,56.327L64.353,56.321L64.283,56.315L64.213,56.31L64.141,56.306L64.069,56.303L63.996,56.3L63.922,56.297L63.847,56.296L63.772,56.295L63.695,56.294L63.619,56.295Z" style="fill:rgb(35,31,32);"/>
        <path d="M45.712,72.666C28.94,68.219 13.874,59.734 13.024,59.251L15,55.773C15.201,55.887 29.911,64.169 46.095,68.603" style="fill:rgb(35,31,32);fill-rule:nonzero;"/>
        <path d="M81.469,68.651C97.816,64.228 112.804,55.883 113.007,55.768L114.967,59.255C114.109,59.738 98.934,68.19 82.115,72.642" style="fill:rgb(35,31,32);fill-rule:nonzero;"/>
        <path d="M110.703,35.027L110.773,35.028L110.842,35.03L110.911,35.034L110.98,35.037L111.049,35.042L111.118,35.048L111.186,35.054L111.254,35.062L111.322,35.07L111.39,35.079L111.458,35.089L111.525,35.1L111.592,35.111L111.659,35.124L111.725,35.137L111.792,35.151L111.858,35.166L111.923,35.181L111.989,35.198L112.054,35.215L112.119,35.233L112.183,35.251L112.247,35.271L112.311,35.291L112.375,35.312L112.438,35.334L112.501,35.357L112.563,35.38L112.625,35.404L112.687,35.429L112.748,35.454L112.809,35.48L112.869,35.507L112.93,35.535L112.989,35.563L113.048,35.592L113.107,35.622L113.166,35.652L113.224,35.683L113.281,35.715L113.338,35.747L113.395,35.78L113.451,35.814L113.507,35.848L113.562,35.883L113.617,35.919L113.671,35.955L113.725,35.992L113.779,36.03L113.832,36.068L113.884,36.106L113.936,36.146L113.987,36.186L114.038,36.226L114.089,36.267L114.139,36.309L114.188,36.351L114.237,36.394L114.285,36.438L114.333,36.482L114.38,36.526L114.427,36.571L114.473,36.617L114.519,36.663L114.564,36.71L114.609,36.757L114.653,36.805L114.696,36.853L114.739,36.902L114.781,36.952L114.823,37.001L114.864,37.052L114.905,37.103L114.944,37.154L114.984,37.206L115.023,37.259L115.061,37.311L115.098,37.365L115.135,37.419L115.171,37.473L115.207,37.528L115.242,37.583L115.276,37.639L115.31,37.695L115.343,37.752L115.375,37.809L115.407,37.867L115.438,37.924L115.468,37.983L115.498,38.042L115.527,38.101L115.555,38.161L115.583,38.221L115.61,38.281L115.636,38.342L115.662,38.404L115.686,38.465L115.71,38.527L115.734,38.59L115.756,38.652L115.778,38.715L115.799,38.779L115.819,38.843L115.839,38.907L115.857,38.971L115.875,39.036L115.893,39.101L115.909,39.167L115.925,39.233L115.939,39.299L115.953,39.365L115.967,39.431L115.979,39.498L115.991,39.565L116.001,39.633L116.011,39.7L116.02,39.768L116.028,39.836L116.036,39.904L116.042,39.973L116.048,40.041L116.053,40.11L116.057,40.179L116.06,40.248L116.062,40.318L116.063,40.387L116.064,40.449L116.064,95.693L116.063,95.755L116.062,95.824L116.06,95.894L116.057,95.963L116.053,96.032L116.048,96.101L116.042,96.169L116.036,96.238L116.028,96.306L116.02,96.374L116.011,96.442L116.001,96.509L115.991,96.577L115.979,96.644L115.967,96.711L115.953,96.777L115.939,96.843L115.925,96.909L115.909,96.975L115.893,97.041L115.875,97.106L115.857,97.171L115.839,97.235L115.819,97.299L115.799,97.363L115.778,97.427L115.756,97.49L115.734,97.552L115.71,97.615L115.686,97.677L115.662,97.738L115.636,97.8L115.61,97.861L115.583,97.921L115.555,97.981L115.527,98.041L115.498,98.1L115.468,98.159L115.438,98.218L115.407,98.275L115.375,98.333L115.343,98.39L115.31,98.447L115.276,98.503L115.242,98.559L115.207,98.614L115.171,98.669L115.135,98.723L115.098,98.777L115.061,98.83L115.023,98.883L114.984,98.936L114.944,98.988L114.905,99.039L114.864,99.09L114.823,99.141L114.781,99.191L114.739,99.24L114.696,99.289L114.653,99.337L114.609,99.385L114.564,99.432L114.519,99.479L114.473,99.525L114.427,99.571L114.38,99.616L114.333,99.66L114.285,99.704L114.237,99.748L114.188,99.791L114.138,99.833L114.089,99.875L114.038,99.916L113.987,99.956L113.936,99.996L113.884,100.035L113.832,100.074L113.779,100.112L113.725,100.15L113.671,100.187L113.617,100.223L113.562,100.259L113.507,100.294L113.451,100.328L113.395,100.362L113.338,100.395L113.281,100.427L113.224,100.459L113.165,100.49L113.107,100.52L113.048,100.55L112.989,100.579L112.93,100.607L112.869,100.635L112.809,100.662L112.748,100.688L112.687,100.713L112.625,100.738L112.563,100.762L112.501,100.785L112.438,100.808L112.375,100.83L112.311,100.851L112.247,100.871L112.183,100.891L112.119,100.909L112.054,100.927L111.989,100.944L111.923,100.961L111.858,100.976L111.792,100.991L111.725,101.005L111.659,101.018L111.592,101.031L111.525,101.042L111.458,101.053L111.39,101.063L111.322,101.072L111.254,101.08L111.186,101.088L111.117,101.094L111.049,101.1L110.98,101.104L110.911,101.108L110.842,101.112L110.773,101.114L110.703,101.115L110.641,101.115L17.359,101.115L17.297,101.115L17.228,101.114L17.159,101.112L17.089,101.108L17.02,101.104L16.952,101.1L16.883,101.094L16.814,101.088L16.746,101.08L16.678,101.072L16.61,101.063L16.543,101.053L16.475,101.042L16.409,101.031L16.342,101.018L16.275,101.005L16.209,100.991L16.142,100.976L16.077,100.961L16.012,100.944L15.946,100.927L15.881,100.909L15.817,100.891L15.753,100.871L15.689,100.851L15.626,100.83L15.563,100.808L15.5,100.785L15.437,100.762L15.375,100.738L15.314,100.713L15.252,100.688L15.192,100.662L15.131,100.635L15.071,100.607L15.011,100.579L14.952,100.55L14.893,100.52L14.835,100.49L14.777,100.459L14.719,100.427L14.662,100.395L14.605,100.362L14.549,100.328L14.494,100.294L14.438,100.259L14.383,100.223L14.329,100.187L14.275,100.15L14.222,100.112L14.169,100.074L14.116,100.035L14.065,99.996L14.013,99.956L13.962,99.916L13.912,99.875L13.862,99.833L13.812,99.791L13.763,99.748L13.715,99.704L13.667,99.661L13.62,99.616L13.573,99.571L13.527,99.525L13.481,99.479L13.436,99.432L13.392,99.385L13.348,99.337L13.304,99.289L13.262,99.24L13.219,99.19L13.177,99.14L13.136,99.09L13.096,99.039L13.056,98.988L13.017,98.936L12.978,98.883L12.94,98.83L12.902,98.777L12.865,98.723L12.829,98.669L12.794,98.614L12.759,98.559L12.724,98.503L12.691,98.447L12.658,98.39L12.625,98.333L12.593,98.275L12.562,98.217L12.532,98.159L12.502,98.1L12.473,98.041L12.445,97.981L12.417,97.921L12.391,97.861L12.364,97.8L12.339,97.738L12.314,97.677L12.29,97.615L12.267,97.552L12.244,97.49L12.223,97.427L12.202,97.363L12.181,97.299L12.162,97.235L12.143,97.171L12.125,97.106L12.108,97.041L12.091,96.975L12.076,96.91L12.061,96.843L12.047,96.777L12.034,96.711L12.021,96.644L12.01,96.577L11.999,96.509L11.989,96.442L11.98,96.374L11.972,96.306L11.965,96.238L11.958,96.169L11.952,96.101L11.948,96.032L11.944,95.963L11.941,95.894L11.938,95.824L11.937,95.755L11.937,95.693L11.937,40.449L11.937,40.387L11.938,40.318L11.941,40.248L11.944,40.179L11.948,40.11L11.952,40.041L11.958,39.973L11.965,39.904L11.972,39.836L11.98,39.768L11.989,39.7L11.999,39.633L12.01,39.565L12.021,39.498L12.034,39.431L12.047,39.365L12.061,39.299L12.076,39.232L12.091,39.167L12.108,39.101L12.125,39.036L12.143,38.971L12.162,38.907L12.181,38.843L12.201,38.779L12.223,38.715L12.244,38.652L12.267,38.59L12.29,38.527L12.314,38.465L12.339,38.403L12.364,38.342L12.391,38.281L12.417,38.221L12.445,38.161L12.473,38.101L12.502,38.042L12.532,37.983L12.562,37.925L12.593,37.867L12.625,37.809L12.658,37.752L12.691,37.695L12.724,37.639L12.759,37.583L12.794,37.528L12.829,37.473L12.865,37.419L12.902,37.365L12.94,37.312L12.978,37.259L13.017,37.206L13.056,37.154L13.096,37.103L13.136,37.052L13.177,37.002L13.219,36.952L13.262,36.902L13.304,36.853L13.348,36.805L13.392,36.757L13.436,36.71L13.481,36.663L13.527,36.617L13.573,36.571L13.62,36.526L13.667,36.482L13.715,36.438L13.764,36.394L13.812,36.351L13.862,36.309L13.912,36.267L13.962,36.226L14.013,36.186L14.065,36.146L14.116,36.106L14.169,36.068L14.222,36.03L14.275,35.992L14.329,35.955L14.383,35.919L14.438,35.883L14.494,35.848L14.549,35.814L14.605,35.78L14.662,35.747L14.719,35.715L14.777,35.683L14.835,35.652L14.893,35.622L14.952,35.592L15.011,35.563L15.071,35.535L15.131,35.507L15.192,35.48L15.252,35.454L15.314,35.429L15.375,35.404L15.437,35.38L15.5,35.357L15.562,35.334L15.626,35.312L15.689,35.291L15.753,35.271L15.817,35.251L15.882,35.233L15.946,35.215L16.011,35.198L16.077,35.181L16.143,35.166L16.209,35.151L16.275,35.137L16.342,35.124L16.408,35.111L16.475,35.1L16.543,35.089L16.61,35.079L16.678,35.07L16.746,35.062L16.814,35.054L16.883,35.048L16.951,35.042L17.02,35.037L17.089,35.034L17.158,35.03L17.228,35.028L17.297,35.027L17.359,35.027L110.642,35.027L110.703,35.027ZM17.375,39.886L17.359,39.887L17.351,39.887L17.343,39.887L17.335,39.887L17.328,39.888L17.32,39.888L17.313,39.889L17.305,39.89L17.298,39.89L17.291,39.891L17.284,39.892L17.277,39.893L17.27,39.894L17.263,39.895L17.256,39.897L17.249,39.898L17.242,39.9L17.236,39.901L17.229,39.903L17.222,39.904L17.216,39.906L17.209,39.908L17.203,39.91L17.196,39.912L17.19,39.914L17.183,39.916L17.177,39.918L17.171,39.92L17.164,39.923L17.158,39.925L17.152,39.928L17.145,39.93L17.139,39.933L17.133,39.936L17.127,39.939L17.121,39.941L17.115,39.944L17.109,39.947L17.103,39.951L17.097,39.954L17.09,39.957L17.085,39.96L17.079,39.964L17.073,39.967L17.067,39.971L17.061,39.975L17.055,39.979L17.05,39.982L17.044,39.986L17.038,39.99L17.033,39.994L17.027,39.998L17.021,40.003L17.016,40.007L17.01,40.011L17.005,40.016L17,40.02L16.994,40.025L16.989,40.029L16.984,40.034L16.979,40.039L16.974,40.044L16.969,40.048L16.964,40.053L16.959,40.058L16.954,40.063L16.949,40.068L16.944,40.074L16.94,40.079L16.935,40.084L16.93,40.089L16.926,40.095L16.921,40.1L16.917,40.106L16.913,40.111L16.909,40.117L16.904,40.122L16.9,40.128L16.896,40.134L16.893,40.139L16.889,40.145L16.885,40.151L16.881,40.157L16.878,40.163L16.874,40.168L16.871,40.174L16.867,40.18L16.864,40.186L16.861,40.192L16.858,40.198L16.855,40.204L16.852,40.211L16.849,40.217L16.846,40.223L16.843,40.229L16.84,40.235L16.838,40.241L16.835,40.248L16.833,40.254L16.831,40.26L16.828,40.267L16.826,40.273L16.824,40.279L16.822,40.286L16.82,40.292L16.818,40.299L16.816,40.305L16.814,40.312L16.813,40.319L16.811,40.325L16.81,40.332L16.808,40.339L16.807,40.346L16.806,40.353L16.804,40.36L16.803,40.367L16.802,40.374L16.801,40.381L16.801,40.388L16.8,40.395L16.799,40.403L16.798,40.41L16.798,40.417L16.797,40.425L16.797,40.433L16.797,40.441L16.797,40.449L16.797,40.464L16.797,95.678L16.797,95.701L16.797,95.717L16.798,95.732L16.8,95.747L16.802,95.768L16.806,95.789L16.81,95.81L16.814,95.83L16.82,95.85L16.826,95.869L16.833,95.888L16.84,95.907L16.849,95.925L16.858,95.944L16.867,95.962L16.878,95.979L16.889,95.997L16.9,96.014L16.913,96.031L16.926,96.047L16.94,96.063L16.954,96.079L16.969,96.094L16.984,96.108L17,96.122L17.016,96.135L17.033,96.148L17.05,96.16L17.067,96.171L17.085,96.182L17.102,96.191L17.121,96.201L17.139,96.209L17.158,96.217L17.177,96.224L17.196,96.23L17.216,96.236L17.236,96.241L17.256,96.245L17.277,96.249L17.298,96.252L17.313,96.253L17.328,96.254L17.343,96.255L17.359,96.255L17.374,96.256L110.626,96.256L110.642,96.255L110.65,96.255L110.658,96.255L110.665,96.255L110.673,96.254L110.68,96.254L110.688,96.253L110.695,96.252L110.702,96.252L110.709,96.251L110.717,96.25L110.724,96.249L110.731,96.248L110.738,96.247L110.745,96.245L110.751,96.244L110.758,96.243L110.765,96.241L110.772,96.239L110.778,96.238L110.784,96.236L110.791,96.234L110.798,96.232L110.804,96.23L110.811,96.228L110.817,96.226L110.824,96.224L110.83,96.222L110.836,96.219L110.843,96.217L110.849,96.214L110.855,96.212L110.861,96.209L110.867,96.206L110.873,96.204L110.88,96.201L110.886,96.198L110.892,96.194L110.898,96.191L110.904,96.188L110.91,96.185L110.916,96.181L110.922,96.178L110.928,96.175L110.933,96.171L110.939,96.167L110.945,96.163L110.951,96.16L110.957,96.156L110.962,96.152L110.968,96.148L110.973,96.144L110.979,96.139L110.985,96.135L110.99,96.131L110.995,96.126L111.001,96.122L111.006,96.117L111.011,96.113L111.017,96.108L111.022,96.103L111.027,96.098L111.032,96.093L111.037,96.089L111.042,96.084L111.047,96.078L111.051,96.073L111.056,96.068L111.061,96.063L111.066,96.058L111.07,96.052L111.075,96.047L111.079,96.042L111.083,96.036L111.088,96.031L111.092,96.025L111.096,96.02L111.1,96.014L111.104,96.008L111.108,96.003L111.112,95.997L111.115,95.991L111.119,95.985L111.123,95.979L111.126,95.974L111.13,95.968L111.133,95.962L111.136,95.956L111.14,95.95L111.143,95.943L111.146,95.938L111.149,95.932L111.152,95.925L111.154,95.919L111.157,95.913L111.16,95.907L111.162,95.901L111.165,95.894L111.168,95.888L111.17,95.882L111.172,95.875L111.174,95.869L111.176,95.863L111.178,95.856L111.181,95.849L111.182,95.843L111.184,95.837L111.186,95.83L111.188,95.823L111.189,95.817L111.191,95.81L111.192,95.803L111.193,95.796L111.195,95.789L111.196,95.782L111.197,95.776L111.198,95.769L111.199,95.761L111.2,95.754L111.201,95.747L111.201,95.739L111.202,95.732L111.203,95.725L111.203,95.717L111.203,95.709L111.204,95.702L111.204,95.694L111.204,95.678L111.204,40.464L111.204,40.448L111.204,40.44L111.203,40.433L111.203,40.425L111.203,40.417L111.202,40.41L111.201,40.403L111.201,40.395L111.2,40.388L111.199,40.381L111.198,40.373L111.197,40.366L111.196,40.36L111.195,40.353L111.193,40.346L111.192,40.339L111.191,40.332L111.189,40.325L111.188,40.319L111.186,40.312L111.184,40.305L111.182,40.299L111.181,40.293L111.178,40.286L111.176,40.279L111.174,40.273L111.172,40.267L111.17,40.26L111.168,40.254L111.165,40.248L111.162,40.241L111.16,40.235L111.157,40.229L111.155,40.223L111.152,40.217L111.149,40.21L111.146,40.204L111.143,40.198L111.14,40.192L111.136,40.186L111.133,40.18L111.13,40.174L111.126,40.168L111.123,40.163L111.119,40.157L111.115,40.151L111.112,40.145L111.108,40.139L111.104,40.134L111.1,40.128L111.096,40.122L111.092,40.117L111.088,40.111L111.083,40.106L111.079,40.1L111.075,40.095L111.07,40.089L111.065,40.084L111.061,40.079L111.056,40.074L111.051,40.069L111.047,40.063L111.042,40.058L111.037,40.053L111.032,40.049L111.027,40.044L111.022,40.039L111.017,40.034L111.011,40.029L111.006,40.025L111.001,40.02L110.995,40.016L110.99,40.011L110.984,40.007L110.979,40.003L110.973,39.998L110.968,39.994L110.962,39.99L110.957,39.986L110.951,39.982L110.945,39.979L110.939,39.975L110.933,39.971L110.928,39.967L110.922,39.964L110.916,39.961L110.91,39.957L110.904,39.954L110.898,39.951L110.892,39.948L110.886,39.944L110.88,39.941L110.873,39.938L110.867,39.936L110.861,39.933L110.855,39.93L110.849,39.928L110.842,39.925L110.836,39.923L110.83,39.92L110.823,39.918L110.817,39.916L110.811,39.914L110.804,39.912L110.798,39.91L110.791,39.908L110.785,39.906L110.778,39.904L110.772,39.903L110.765,39.901L110.758,39.9L110.751,39.898L110.744,39.897L110.738,39.895L110.731,39.894L110.724,39.893L110.717,39.892L110.709,39.891L110.702,39.89L110.695,39.89L110.688,39.889L110.68,39.888L110.673,39.888L110.665,39.887L110.657,39.887L110.65,39.887L110.642,39.887L110.626,39.886L17.375,39.886Z" style="fill:rgb(35,31,32);"/>
    </g>
</svg>
